<svg width="392" height="392" xmlns="http://www.w3.org/2000/svg" xmlns:xlink="http://www.w3.org/1999/xlink" xml:space="preserve" overflow="hidden"><g transform="translate(-129 -164)"><path d="M388.414 365.145 361.954 391.605 335.453 365.145 350.235 365.145C345.235 355.405 335.213 349.276 324.265 349.261 317.202 349.269 310.387 351.87 305.114 356.57L278.205 356.57C290.192 331.106 320.553 320.181 346.017 332.169 359.606 338.566 369.681 350.632 373.551 365.145Z" fill="#00B0F0"/><path d="M260.279 391.605 286.78 365.145 313.24 391.605 298.336 391.605C303.322 401.338 313.329 407.468 324.265 407.489 331.342 407.488 338.172 404.886 343.457 400.18L370.488 400.18C358.462 425.675 328.044 436.594 302.549 424.567 288.972 418.163 278.902 406.106 275.02 391.605Z" fill="#00B0F0"/><path d="M450.481 474.333C485.742 473.499 513.65 444.238 512.815 408.977 512.079 377.867 489.028 351.817 458.239 347.301 454.986 327.332 444.017 309.441 427.696 297.484 410.805 285.514 389.708 281.079 369.427 285.234 349.473 254.428 312.262 239.553 276.572 248.117 241.786 257.075 215.793 286.064 210.667 321.617 187.493 322.239 165.883 333.45 152.03 352.038 135.616 374.838 132.626 404.669 144.19 430.274 155.978 455.512 180.654 472.256 208.462 473.884ZM209.564 448.527C191.087 447.363 174.707 436.24 166.812 419.494 159.15 402.426 161.125 382.575 171.997 367.35 183.114 352.395 201.611 344.846 220.018 347.75L234.513 350.159 234.513 334.152C234.655 305.233 254.309 280.058 282.329 272.902 310.445 266.123 339.515 279.676 352.399 305.569L357.34 315.41 367.589 311.776C382.924 306.358 399.936 308.734 413.2 318.146 426.388 327.806 434.195 343.163 434.229 359.51L434.229 372.25 450.889 372.25C472.05 373.045 488.561 390.843 487.766 412.004 487.008 432.208 470.692 448.351 450.481 448.894Z" fill="#00B0F0"/></g></svg>