<svg width="434" height="433" xmlns="http://www.w3.org/2000/svg" xmlns:xlink="http://www.w3.org/1999/xlink" xml:space="preserve" overflow="hidden"><g transform="translate(-401 3)"><path d="M62.6948 294.981C59.0865 288.667 50.5167 286.411 44.2021 290.02 37.8875 293.628 35.6323 302.198 39.2406 308.512L66.3031 355.421C69.9115 361.735 78.4812 363.991 84.7958 360.382 91.1104 356.774 93.3656 348.204 89.7573 341.89L62.6948 294.981Z" fill="#FFC000" transform="matrix(1.00231 0 0 1 401 -3)"/><path d="M260.702 322.495 198.007 340.536 183.123 324.299 264.761 300.845 260.702 322.495ZM392.406 252.583 362.186 200.262 321.593 129.9 291.373 77.5792C288.216 72.6177 281.45 71.7156 277.391 75.775L71.7156 274.233 112.309 344.596 163.728 330.162 186.731 354.97C190.34 358.578 195.301 360.382 200.262 359.029L268.37 339.634C269.272 339.183 270.625 338.732 271.527 338.281 274.684 336.477 277.391 332.869 277.842 329.26L284.156 295.883 387.445 266.566C392.857 264.31 395.564 257.545 392.406 252.583Z" fill="#FFC000" transform="matrix(1.00231 0 0 1 401 -3)"/></g></svg>