<svg width="392" height="392" xmlns="http://www.w3.org/2000/svg" xmlns:xlink="http://www.w3.org/1999/xlink" xml:space="preserve" overflow="hidden"><g transform="translate(-536 -198)"><path d="M797.333 320.5C797.333 356.583 768.083 385.833 732 385.833 695.917 385.833 666.667 356.583 666.667 320.5 666.667 284.417 695.917 255.167 732 255.167 768.083 255.167 797.333 284.417 797.333 320.5Z"/><path d="M862.667 532.833 862.667 467.5C862.667 457.7 857.767 447.9 849.6 441.367 831.633 426.667 808.767 416.867 785.9 410.333 769.567 405.433 751.6 402.167 732 402.167 714.033 402.167 696.067 405.433 678.1 410.333 655.233 416.867 632.367 428.3 614.4 441.367 606.233 447.9 601.333 457.7 601.333 467.5L601.333 532.833 862.667 532.833Z"/></g></svg>